<svg xmlns="http://www.w3.org/2000/svg" viewBox="0 0 64 64"><path d="M32 3l6.5 7.2 9.6-1.5 1.6 9.6 8.7 4.4-4 8.8 4 8.8-8.7 4.4-1.6 9.6-9.6-1.5L32 60l-6.5-7.2-9.6 1.5-1.6-9.6-8.7-4.4 4-8.8-4-8.8 8.7-4.4 1.6-9.6 9.6 1.5z" fill="#ffcf1f" stroke="#1c2250" stroke-width="3.5" stroke-linejoin="round"/><ellipse cx="32" cy="45" rx="15" ry="6.5" fill="#1c2250"/><rect x="17" y="38" width="30" height="8" rx="4" fill="#22b8ff" stroke="#1c2250" stroke-width="3"/><rect x="29.5" y="23" width="5" height="17" rx="2.5" fill="#1c2250"/><circle cx="32" cy="20" r="9" fill="#ff4f6d" stroke="#1c2250" stroke-width="3.5"/><circle cx="29" cy="17" r="2.8" fill="#fff" opacity=".85"/></svg>
