<svg xmlns="http://www.w3.org/2000/svg" viewBox="0 0 400 400" width="400" height="400">
<defs><radialGradient id="glow" cx="50%" cy="50%" r="50%"><stop offset="0" stop-color="#fff" stop-opacity="1"/><stop offset=".25" stop-color="#ffd6ff" stop-opacity=".85"/><stop offset="1" stop-color="#ff4fd8" stop-opacity="0"/></radialGradient><radialGradient id="vig" cx="50%" cy="45%" r="70%"><stop offset=".6" stop-color="#000" stop-opacity="0"/><stop offset="1" stop-color="#000" stop-opacity=".55"/></radialGradient><radialGradient id="orb" cx="38%" cy="35%" r="65%"><stop offset="0" stop-color="#fffbe0"/><stop offset=".45" stop-color="#ffd23f"/><stop offset="1" stop-color="#ff8a1a"/></radialGradient><linearGradient id="flame" x1="0" y1="0" x2="0" y2="1"><stop offset="0" stop-color="#fff"/><stop offset=".4" stop-color="#5af0ff"/><stop offset="1" stop-color="#5af0ff" stop-opacity="0"/></linearGradient><filter id="blur" x="-20%" y="-20%" width="140%" height="140%"><feGaussianBlur stdDeviation="4"/></filter><clipPath id="tile"><rect width="400" height="400" rx="0"/></clipPath></defs>
<g clip-path="url(#tile)">
<rect width="400" height="400" fill="#12052e"/>
<polygon points="708.6,276.1 360.7,662.5 299.2,473.3 514.0,234.7" fill="#025b6d"/>
<polygon points="360.7,662.5 -147.9,554.4 -14.8,406.5 299.2,473.3" fill="#037c95"/>
<polygon points="-147.9,554.4 -308.6,59.9 -114.0,101.3 -14.8,406.5" fill="#025b6d"/>
<polygon points="-308.6,59.9 39.3,-326.5 100.8,-137.3 -114.0,101.3" fill="#037c95"/>
<polygon points="39.3,-326.5 547.9,-218.4 414.8,-70.5 100.8,-137.3" fill="#025b6d"/>
<polygon points="547.9,-218.4 708.6,276.1 514.0,234.7 414.8,-70.5" fill="#037c95"/>
<polygon points="514.0,234.7 299.2,473.3 271.7,388.8 427.1,216.3" fill="#036690"/>
<polygon points="299.2,473.3 -14.8,406.5 44.7,340.5 271.7,388.8" fill="#024b69"/>
<polygon points="-14.8,406.5 -114.0,101.3 -27.1,119.7 44.7,340.5" fill="#036690"/>
<polygon points="-114.0,101.3 100.8,-137.3 128.3,-52.8 -27.1,119.7" fill="#024b69"/>
<polygon points="100.8,-137.3 414.8,-70.5 355.3,-4.5 128.3,-52.8" fill="#036690"/>
<polygon points="414.8,-70.5 514.0,234.7 427.1,216.3 355.3,-4.5" fill="#024b69"/>
<polygon points="427.1,216.3 271.7,388.8 256.2,340.9 377.8,205.8" fill="#023b66"/>
<polygon points="271.7,388.8 44.7,340.5 78.3,303.1 256.2,340.9" fill="#03518b"/>
<polygon points="44.7,340.5 -27.1,119.7 22.2,130.2 78.3,303.1" fill="#023b66"/>
<polygon points="-27.1,119.7 128.3,-52.8 143.8,-4.9 22.2,130.2" fill="#03518b"/>
<polygon points="128.3,-52.8 355.3,-4.5 321.7,32.9 143.8,-4.9" fill="#023b66"/>
<polygon points="355.3,-4.5 427.1,216.3 377.8,205.8 321.7,32.9" fill="#03518b"/>
<polygon points="377.8,205.8 256.2,340.9 246.2,310.1 346.2,199.1" fill="#033d86"/>
<polygon points="256.2,340.9 78.3,303.1 100.0,279.0 246.2,310.1" fill="#022c62"/>
<polygon points="78.3,303.1 22.2,130.2 53.8,136.9 100.0,279.0" fill="#033d86"/>
<polygon points="22.2,130.2 143.8,-4.9 153.8,25.9 53.8,136.9" fill="#022c62"/>
<polygon points="143.8,-4.9 321.7,32.9 300.0,57.0 153.8,25.9" fill="#033d86"/>
<polygon points="321.7,32.9 377.8,205.8 346.2,199.1 300.0,57.0" fill="#022c62"/>
<polygon points="346.2,199.1 246.2,310.1 239.2,288.6 324.1,194.4" fill="#021f5f"/>
<polygon points="246.2,310.1 100.0,279.0 115.1,262.3 239.2,288.6" fill="#032a81"/>
<polygon points="100.0,279.0 53.8,136.9 75.9,141.6 115.1,262.3" fill="#021f5f"/>
<polygon points="53.8,136.9 153.8,25.9 160.8,47.4 75.9,141.6" fill="#032a81"/>
<polygon points="153.8,25.9 300.0,57.0 284.9,73.7 160.8,47.4" fill="#021f5f"/>
<polygon points="300.0,57.0 346.2,199.1 324.1,194.4 284.9,73.7" fill="#032a81"/>
<polygon points="324.1,194.4 239.2,288.6 234.0,272.8 307.8,190.9" fill="#03187d"/>
<polygon points="239.2,288.6 115.1,262.3 126.3,249.9 234.0,272.8" fill="#02125b"/>
<polygon points="115.1,262.3 75.9,141.6 92.2,145.1 126.3,249.9" fill="#03187d"/>
<polygon points="75.9,141.6 160.8,47.4 166.0,63.2 92.2,145.1" fill="#02125b"/>
<polygon points="160.8,47.4 284.9,73.7 273.7,86.1 166.0,63.2" fill="#03187d"/>
<polygon points="284.9,73.7 324.1,194.4 307.8,190.9 273.7,86.1" fill="#02125b"/>
<polygon points="307.8,190.9 234.0,272.8 230.1,260.6 295.3,188.2" fill="#020658"/>
<polygon points="234.0,272.8 126.3,249.9 134.8,240.4 230.1,260.6" fill="#030878"/>
<polygon points="126.3,249.9 92.2,145.1 104.7,147.8 134.8,240.4" fill="#020658"/>
<polygon points="92.2,145.1 166.0,63.2 169.9,75.4 104.7,147.8" fill="#030878"/>
<polygon points="166.0,63.2 273.7,86.1 265.2,95.6 169.9,75.4" fill="#020658"/>
<polygon points="273.7,86.1 307.8,190.9 295.3,188.2 265.2,95.6" fill="#030878"/>
<polygon points="295.3,188.2 230.1,260.6 227.0,251.0 285.3,186.1" fill="#0c0273"/>
<polygon points="230.1,260.6 134.8,240.4 141.6,232.8 227.0,251.0" fill="#090254"/>
<polygon points="134.8,240.4 104.7,147.8 114.7,149.9 141.6,232.8" fill="#0c0273"/>
<polygon points="104.7,147.8 169.9,75.4 173.0,85.0 114.7,149.9" fill="#090254"/>
<polygon points="169.9,75.4 265.2,95.6 258.4,103.2 173.0,85.0" fill="#0c0273"/>
<polygon points="265.2,95.6 295.3,188.2 285.3,186.1 258.4,103.2" fill="#090254"/>
<polygon points="285.3,186.1 227.0,251.0 224.4,243.2 277.3,184.4" fill="#130251"/>
<polygon points="227.0,251.0 141.6,232.8 147.1,226.7 224.4,243.2" fill="#19026e"/>
<polygon points="141.6,232.8 114.7,149.9 122.7,151.6 147.1,226.7" fill="#130251"/>
<polygon points="114.7,149.9 173.0,85.0 175.6,92.8 122.7,151.6" fill="#19026e"/>
<polygon points="173.0,85.0 258.4,103.2 252.9,109.3 175.6,92.8" fill="#130251"/>
<polygon points="258.4,103.2 285.3,186.1 277.3,184.4 252.9,109.3" fill="#19026e"/>
<polygon points="277.3,184.4 224.4,243.2 222.3,236.7 270.6,183.0" fill="#26026a"/>
<polygon points="224.4,243.2 147.1,226.7 151.7,221.7 222.3,236.7" fill="#1c014d"/>
<polygon points="147.1,226.7 122.7,151.6 129.4,153.0 151.7,221.7" fill="#26026a"/>
<polygon points="122.7,151.6 175.6,92.8 177.7,99.3 129.4,153.0" fill="#1c014d"/>
<polygon points="175.6,92.8 252.9,109.3 248.3,114.3 177.7,99.3" fill="#26026a"/>
<polygon points="252.9,109.3 277.3,184.4 270.6,183.0 248.3,114.3" fill="#1c014d"/>
<polygon points="270.6,183.0 222.3,236.7 220.5,231.2 265.0,181.8" fill="#24014a"/>
<polygon points="222.3,236.7 151.7,221.7 155.5,217.4 220.5,231.2" fill="#310265"/>
<polygon points="151.7,221.7 129.4,153.0 135.0,154.2 155.5,217.4" fill="#24014a"/>
<polygon points="129.4,153.0 177.7,99.3 179.5,104.8 135.0,154.2" fill="#310265"/>
<polygon points="177.7,99.3 248.3,114.3 244.5,118.6 179.5,104.8" fill="#24014a"/>
<polygon points="248.3,114.3 270.6,183.0 265.0,181.8 244.5,118.6" fill="#310265"/>
<polygon points="265.0,181.8 220.5,231.2 219.0,226.6 260.3,180.8" fill="#3b0260"/>
<polygon points="220.5,231.2 155.5,217.4 158.8,213.8 219.0,226.6" fill="#2b0146"/>
<polygon points="155.5,217.4 135.0,154.2 139.7,155.2 158.8,213.8" fill="#3b0260"/>
<polygon points="135.0,154.2 179.5,104.8 181.0,109.4 139.7,155.2" fill="#2b0146"/>
<polygon points="179.5,104.8 244.5,118.6 241.2,122.2 181.0,109.4" fill="#3b0260"/>
<polygon points="244.5,118.6 265.0,181.8 260.3,180.8 241.2,122.2" fill="#2b0146"/>
<polygon points="260.3,180.8 219.0,226.6 217.7,222.6 256.1,179.9" fill="#320143"/>
<polygon points="219.0,226.6 158.8,213.8 161.6,210.7 217.7,222.6" fill="#44025b"/>
<polygon points="158.8,213.8 139.7,155.2 143.9,156.1 161.6,210.7" fill="#320143"/>
<polygon points="139.7,155.2 181.0,109.4 182.3,113.4 143.9,156.1" fill="#44025b"/>
<polygon points="181.0,109.4 241.2,122.2 238.4,125.3 182.3,113.4" fill="#320143"/>
<polygon points="241.2,122.2 260.3,180.8 256.1,179.9 238.4,125.3" fill="#44025b"/>
<polygon points="256.1,179.9 217.7,222.6 216.6,219.1 252.5,179.2" fill="#4b0256"/>
<polygon points="217.7,222.6 161.6,210.7 164.1,207.9 216.6,219.1" fill="#37013f"/>
<polygon points="161.6,210.7 143.9,156.1 147.5,156.8 164.1,207.9" fill="#4b0256"/>
<polygon points="143.9,156.1 182.3,113.4 183.4,116.9 147.5,156.8" fill="#37013f"/>
<polygon points="182.3,113.4 238.4,125.3 235.9,128.1 183.4,116.9" fill="#4b0256"/>
<polygon points="238.4,125.3 256.1,179.9 252.5,179.2 235.9,128.1" fill="#37013f"/>
<polygon points="252.5,179.2 216.6,219.1 215.6,216.0 249.4,178.5" fill="#3c013c"/>
<polygon points="216.6,219.1 164.1,207.9 166.2,205.5 215.6,216.0" fill="#520252"/>
<polygon points="164.1,207.9 147.5,156.8 150.6,157.5 166.2,205.5" fill="#3c013c"/>
<polygon points="147.5,156.8 183.4,116.9 184.4,120.0 150.6,157.5" fill="#520252"/>
<polygon points="183.4,116.9 235.9,128.1 233.8,130.5 184.4,120.0" fill="#3c013c"/>
<polygon points="235.9,128.1 252.5,179.2 249.4,178.5 233.8,130.5" fill="#520252"/>
<polygon points="514.0,234.7 299.2,473.3 -14.8,406.5 -114.0,101.3 100.8,-137.3 414.8,-70.5" fill="none" stroke="#3dc7ff" stroke-width="4.7" stroke-opacity="0.50"/>
<polygon points="427.1,216.3 271.7,388.8 44.7,340.5 -27.1,119.7 128.3,-52.8 355.3,-4.5" fill="none" stroke="#3dafff" stroke-width="3.5" stroke-opacity="0.50"/>
<polygon points="377.8,205.8 256.2,340.9 78.3,303.1 22.2,130.2 143.8,-4.9 321.7,32.9" fill="none" stroke="#3d97ff" stroke-width="2.8" stroke-opacity="0.90"/>
<polygon points="346.2,199.1 246.2,310.1 100.0,279.0 53.8,136.9 153.8,25.9 300.0,57.0" fill="none" stroke="#3d7fff" stroke-width="2.3" stroke-opacity="0.50"/>
<polygon points="324.1,194.4 239.2,288.6 115.1,262.3 75.9,141.6 160.8,47.4 284.9,73.7" fill="none" stroke="#3d68ff" stroke-width="2.0" stroke-opacity="0.50"/>
<polygon points="307.8,190.9 234.0,272.8 126.3,249.9 92.2,145.1 166.0,63.2 273.7,86.1" fill="none" stroke="#3d50ff" stroke-width="1.8" stroke-opacity="0.90"/>
<polygon points="295.3,188.2 230.1,260.6 134.8,240.4 104.7,147.8 169.9,75.4 265.2,95.6" fill="none" stroke="#413dff" stroke-width="1.6" stroke-opacity="0.50"/>
<polygon points="285.3,186.1 227.0,251.0 141.6,232.8 114.7,149.9 173.0,85.0 258.4,103.2" fill="none" stroke="#593dff" stroke-width="1.4" stroke-opacity="0.50"/>
<polygon points="277.3,184.4 224.4,243.2 147.1,226.7 122.7,151.6 175.6,92.8 252.9,109.3" fill="none" stroke="#703dff" stroke-width="1.3" stroke-opacity="0.90"/>
<polygon points="270.6,183.0 222.3,236.7 151.7,221.7 129.4,153.0 177.7,99.3 248.3,114.3" fill="none" stroke="#883dff" stroke-width="1.2" stroke-opacity="0.50"/>
<polygon points="265.0,181.8 220.5,231.2 155.5,217.4 135.0,154.2 179.5,104.8 244.5,118.6" fill="none" stroke="#a03dff" stroke-width="1.1" stroke-opacity="0.50"/>
<polygon points="260.3,180.8 219.0,226.6 158.8,213.8 139.7,155.2 181.0,109.4 241.2,122.2" fill="none" stroke="#b73dff" stroke-width="1.0" stroke-opacity="0.90"/>
<polygon points="256.1,179.9 217.7,222.6 161.6,210.7 143.9,156.1 182.3,113.4 238.4,125.3" fill="none" stroke="#cf3dff" stroke-width="0.9" stroke-opacity="0.50"/>
<polygon points="252.5,179.2 216.6,219.1 164.1,207.9 147.5,156.8 183.4,116.9 235.9,128.1" fill="none" stroke="#e73dff" stroke-width="0.9" stroke-opacity="0.50"/>
<polygon points="249.4,178.5 215.6,216.0 166.2,205.5 150.6,157.5 184.4,120.0 233.8,130.5" fill="none" stroke="#ff3dfe" stroke-width="0.8" stroke-opacity="0.90"/>
<line x1="708.6" y1="276.1" x2="249.4" y2="178.5" stroke="#7cf9ff" stroke-width="2" stroke-opacity=".45"/>
<line x1="360.7" y1="662.5" x2="215.6" y2="216.0" stroke="#7cf9ff" stroke-width="2" stroke-opacity=".45"/>
<line x1="-147.9" y1="554.4" x2="166.2" y2="205.5" stroke="#7cf9ff" stroke-width="2" stroke-opacity=".45"/>
<line x1="-308.6" y1="59.9" x2="150.6" y2="157.5" stroke="#7cf9ff" stroke-width="2" stroke-opacity=".45"/>
<line x1="39.3" y1="-326.5" x2="184.4" y2="120.0" stroke="#7cf9ff" stroke-width="2" stroke-opacity=".45"/>
<line x1="547.9" y1="-218.4" x2="233.8" y2="130.5" stroke="#7cf9ff" stroke-width="2" stroke-opacity=".45"/>
<circle cx="200" cy="168" r="70" fill="url(#glow)"/>
<polygon points="123.4,140.1 127.1,136.0 130.6,132.1 134.0,128.4 137.3,124.7 140.6,121.0 143.8,117.4 200.0,168.0 200.0,168.0 200.0,168.0 200.0,168.0 200.0,168.0 200.0,168.0 200.0,168.0" fill="#ffd23f" fill-opacity=".55" stroke="#fff4a0" stroke-width="2"/>
<polygon points="276.6,195.9 272.9,200.0 269.4,203.9 266.0,207.6 262.7,211.3 259.4,215.0 256.2,218.6 200.0,168.0 200.0,168.0 200.0,168.0 200.0,168.0 200.0,168.0 200.0,168.0 200.0,168.0" fill="#ffd23f" fill-opacity=".55" stroke="#fff4a0" stroke-width="2"/>
<polygon points="111.4,281.5 97.7,271.9 92.2,255.0 87.2,239.5 82.4,224.8 77.8,210.7 73.2,196.6 68.5,182.2 63.6,167.0 58.3,150.7 56.8,133.6 68.9,120.2 80.0,107.9 90.4,96.4 100.4,85.3 110.3,74.3 120.4,63.1 130.9,51.4 142.2,38.8 155.1,26.2 173.2,30.0 189.5,33.5 204.8,36.7 219.5,39.8 234.0,42.9 248.7,46.0 263.9,49.3 280.2,52.8 298.2,56.6 305.2,73.1 310.5,89.2 315.3,104.2 320.0,118.5 324.6,132.6 329.2,146.8 334.0,161.6 339.1,177.2 344.6,194.4 336.7,209.5 325.2,222.3 314.6,234.1 225.2,182.6 227.5,180.0 230.1,177.1 231.8,173.8 230.6,170.0 229.5,166.6 228.4,163.3 227.4,160.2 226.4,157.1 225.4,154.0 224.3,150.7 223.1,147.1 221.6,143.5 217.7,142.6 214.1,141.9 210.7,141.2 207.5,140.5 204.3,139.8 201.1,139.1 197.7,138.4 194.1,137.6 190.1,136.8 187.3,139.6 184.8,142.3 182.5,144.9 180.3,147.4 178.1,149.8 175.9,152.2 173.6,154.8 171.2,157.5 168.5,160.4 168.8,164.2 170.0,167.8 171.1,171.1 172.1,174.3 173.1,177.4 174.1,180.5 175.2,183.7 176.3,187.1 177.5,190.9 180.5,193.0" fill="#ff3df2" fill-opacity=".5" stroke="#ff3df2" stroke-width="12" stroke-opacity=".35" stroke-linejoin="round"/>
<polygon points="111.4,281.5 97.7,271.9 92.2,255.0 87.2,239.5 82.4,224.8 77.8,210.7 73.2,196.6 68.5,182.2 63.6,167.0 58.3,150.7 56.8,133.6 68.9,120.2 80.0,107.9 90.4,96.4 100.4,85.3 110.3,74.3 120.4,63.1 130.9,51.4 142.2,38.8 155.1,26.2 173.2,30.0 189.5,33.5 204.8,36.7 219.5,39.8 234.0,42.9 248.7,46.0 263.9,49.3 280.2,52.8 298.2,56.6 305.2,73.1 310.5,89.2 315.3,104.2 320.0,118.5 324.6,132.6 329.2,146.8 334.0,161.6 339.1,177.2 344.6,194.4 336.7,209.5 325.2,222.3 314.6,234.1 225.2,182.6 227.5,180.0 230.1,177.1 231.8,173.8 230.6,170.0 229.5,166.6 228.4,163.3 227.4,160.2 226.4,157.1 225.4,154.0 224.3,150.7 223.1,147.1 221.6,143.5 217.7,142.6 214.1,141.9 210.7,141.2 207.5,140.5 204.3,139.8 201.1,139.1 197.7,138.4 194.1,137.6 190.1,136.8 187.3,139.6 184.8,142.3 182.5,144.9 180.3,147.4 178.1,149.8 175.9,152.2 173.6,154.8 171.2,157.5 168.5,160.4 168.8,164.2 170.0,167.8 171.1,171.1 172.1,174.3 173.1,177.4 174.1,180.5 175.2,183.7 176.3,187.1 177.5,190.9 180.5,193.0" fill="none" stroke="#ffc4fb" stroke-width="4" stroke-linejoin="round"/>
<line x1="127.5" y1="312.9" x2="95.0" y2="377.8" stroke="#fff" stroke-width="1.6" stroke-opacity=".55" stroke-linecap="round"/>
<line x1="25.3" y1="127.9" x2="-16.5" y2="118.3" stroke="#fff" stroke-width="2.5" stroke-opacity=".55" stroke-linecap="round"/>
<line x1="379.6" y1="211.1" x2="421.9" y2="221.3" stroke="#fff" stroke-width="1.7" stroke-opacity=".55" stroke-linecap="round"/>
<line x1="7.7" y1="266.7" x2="-33.4" y2="287.8" stroke="#fff" stroke-width="1.9" stroke-opacity=".55" stroke-linecap="round"/>
<line x1="42.8" y1="5.9" x2="-5.2" y2="-43.5" stroke="#fff" stroke-width="2.3" stroke-opacity=".55" stroke-linecap="round"/>
<line x1="352.0" y1="145.1" x2="434.0" y2="132.8" stroke="#fff" stroke-width="2.1" stroke-opacity=".55" stroke-linecap="round"/>
<line x1="298.3" y1="293.5" x2="332.5" y2="337.1" stroke="#fff" stroke-width="3.1" stroke-opacity=".55" stroke-linecap="round"/>
<line x1="282.9" y1="346.2" x2="313.2" y2="411.4" stroke="#fff" stroke-width="2.2" stroke-opacity=".55" stroke-linecap="round"/>
<line x1="51.9" y1="122.2" x2="10.8" y2="109.5" stroke="#fff" stroke-width="1.9" stroke-opacity=".55" stroke-linecap="round"/>
<line x1="122.0" y1="1.1" x2="98.4" y2="-49.3" stroke="#fff" stroke-width="2.7" stroke-opacity=".55" stroke-linecap="round"/>
<line x1="33.5" y1="218.4" x2="-42.8" y2="241.6" stroke="#fff" stroke-width="2.9" stroke-opacity=".55" stroke-linecap="round"/>
<line x1="207.3" y1="363.8" x2="209.7" y2="430.0" stroke="#fff" stroke-width="3.3" stroke-opacity=".55" stroke-linecap="round"/>
<line x1="177.7" y1="-3.6" x2="166.3" y2="-91.9" stroke="#fff" stroke-width="1.7" stroke-opacity=".55" stroke-linecap="round"/>
<line x1="16.7" y1="271.6" x2="-24.8" y2="295.0" stroke="#fff" stroke-width="2.5" stroke-opacity=".55" stroke-linecap="round"/>
<line x1="397.3" y1="217.6" x2="473.2" y2="236.7" stroke="#fff" stroke-width="2.6" stroke-opacity=".55" stroke-linecap="round"/>
<line x1="324.2" y1="44.6" x2="377.2" y2="-8.1" stroke="#fff" stroke-width="2.7" stroke-opacity=".55" stroke-linecap="round"/>
<circle cx="232" cy="214" r="12" fill="#ffc21a" opacity=".35" filter="url(#blur)"/>
<circle cx="232" cy="214" r="7" fill="url(#orb)" stroke="#fff6c0" stroke-width="1.5"/>
<circle cx="236" cy="244" r="18" fill="#ffc21a" opacity=".35" filter="url(#blur)"/>
<circle cx="236" cy="244" r="10" fill="url(#orb)" stroke="#fff6c0" stroke-width="1.5"/>
<circle cx="226" cy="280" r="25" fill="#ffc21a" opacity=".35" filter="url(#blur)"/>
<circle cx="226" cy="280" r="14" fill="url(#orb)" stroke="#fff6c0" stroke-width="1.5"/>
<g transform="translate(196 338) rotate(-8) scale(58)">
<ellipse cx="0" cy="1.0" rx="1.3" ry=".22" fill="#5af0ff" opacity=".35"/>
<path d="M-.47 .42 Q-.32 1.25 -.17 .42Z M.17 .42 Q.32 1.25 .47 .42Z" fill="url(#flame)"/>
<path d="M0 -1.08 L.3 -.25 L1.02 .42 L.96 .62 L.32 .44 L0 .58 L-.32 .44 L-.96 .62 L-1.02 .42 L-.3 -.25Z" fill="#fff" stroke="#0d3b66" stroke-width=".09" stroke-linejoin="round"/>
<path d="M.38 .06 L.86 .46 M-.38 .06 L-.86 .46" stroke="#19e6ff" stroke-width=".14" stroke-linecap="round"/>
<ellipse cx="0" cy="-.2" rx=".19" ry=".36" fill="#152044"/><ellipse cx="-.06" cy="-.33" rx=".07" ry=".11" fill="#a0ebff"/>
</g>
<path d="M300 290 l2.5 7.5 l7.5 2.5 l-7.5 2.5 l-2.5 7.5 Z" fill="#fff"/>
<path d="M300 310 l-2.5 -7.5 l-7.5 -2.5 l7.5 -2.5 l2.5 -7.5 Z" fill="#fff"/>
<path d="M90 242 l2.0 6.0 l6.0 2.0 l-6.0 2.0 l-2.0 6.0 Z" fill="#fff"/>
<path d="M90 258 l-2.0 -6.0 l-6.0 -2.0 l6.0 -2.0 l2.0 -6.0 Z" fill="#fff"/>
<path d="M320 83 l1.8 5.2 l5.2 1.8 l-5.2 1.8 l-1.8 5.2 Z" fill="#fff"/>
<path d="M320 97 l-1.8 -5.2 l-5.2 -1.8 l5.2 -1.8 l1.8 -5.2 Z" fill="#fff"/>
<path d="M70 101 l2.2 6.8 l6.8 2.2 l-6.8 2.2 l-2.2 6.8 Z" fill="#fff"/>
<path d="M70 119 l-2.2 -6.8 l-6.8 -2.2 l6.8 -2.2 l2.2 -6.8 Z" fill="#fff"/>
<rect width="400" height="400" fill="url(#vig)"/>
</g></svg>